<?xml version="1.0" encoding="UTF-8"?>
<svg id="Layer_1" xmlns="http://www.w3.org/2000/svg" version="1.1" viewBox="0 0 140 140">
  <!-- Generator: Adobe Illustrator 30.4.0, SVG Export Plug-In . SVG Version: 2.1.4 Build 226)  -->
  <defs>
    <style>
      .st0 {
        stroke: #fff;
        stroke-linejoin: round;
        stroke-width: 4px;
      }

      .st0, .st1 {
        fill: #fff;
      }

      .st2 {
        opacity: .2;
      }

      .st1, .st3, .st4, .st5, .st6, .st7, .st8, .st9 {
        fill-rule: evenodd;
      }

      .st3 {
        fill: #edd694;
      }

      .st4, .st10 {
        fill: #0421af;
      }

      .st5 {
        fill: #f2dd00;
      }

      .st11 {
        fill: #231f20;
      }

      .st6 {
        fill: #292422;
      }

      .st8 {
        fill: #d1992d;
      }

      .st9 {
        fill: #ebac25;
      }
    </style>
  </defs>
  <rect class="st10" width="140" height="140" rx="32.6" ry="32.6"/>
  <g>
    <path class="st0" d="M75.7,17.1s20.3,7.4,32.2,25.4c0,0-10.5,7.2-18,7.7,0,0,1.2,2.1-.7,5.2,0,0,7.2,2.8,8.8,5,0,0,11.2-.8,12.5,3.2,0,0-2.3,1.1-1.8,2.9,0,0-5.3-2.8-7.5.2,0,0,6.8,4.4,5.9,8.9,0,0,.3,4-4,5.3,0,0,3.3,10.5-1.4,12.9,0,0-2.8,1.6-4.1-1.6,0,0-3.9,3.7-6.8,3.9l.7,4.3s2.5,2,4,2.7c0,0,13.1-1.5,15.9,2.5,0,0,2.3,2.5-2.7,4.4,0,0-20.2,4.7-33.8-.9,0,0-8.8,4.1-22.3,3,0,0-15,.4-18-5.3,0,0-1.6-4.8,6.3-4.5,0,0,8.2.9,9.7-.9,0,0,4.6-3.9,1.8-6,0,0-4.1-.4-3.9-7.4l-20.6,12.9s-3.2-.3-1.6-12l4.3,1.3.4-3.4h4.5l1.1-2.2,3.6.2.5-2,4.6.9s-2.4-1.1-.2-4.1c0,0,0-1.7-3.8-4.1,0,0-6.4-1.8-4-6.8,0,0,1.8-2.4,5.7-4.2,0,0,0-4,4.6-3.1,0,0,0-1.6,2.6-2.7,0,0,5.4-2.3,9.7-2.5,0,0-4.2-3.1-4.3-5.4,0,0-13.1-2.9-16.8-6.6,0,0,5.4-16.1,36.6-27Z"/>
    <g>
      <g>
        <path class="st7" d="M39.8,43.8s32.7,19.9,67.3-1.8c0,0-29.6-15.8-67.3,1.8Z"/>
        <path d="M72.5,53.1h0c-19.1,0-32.7-8.1-33.2-8.5-.3-.2-.5-.5-.5-.9,0-.4.2-.7.6-.9,12-5.6,24.4-8.4,36.8-8.4,18.7,0,30.9,6.3,31.4,6.6.3.2.5.5.5.8,0,.4-.2.7-.5.9-10.9,6.8-22.7,10.3-35.1,10.3ZM42,43.9c4.2,2.1,15.8,7.2,30.5,7.2h0c11.4,0,22.3-3,32.5-9-3.9-1.7-14.5-5.6-28.8-5.6s-23,2.5-34.2,7.4Z"/>
      </g>
      <path class="st8" d="M39.8,42.4s3.5-12.1,35.5-24.9c0,0,13.9,3.9,31.8,23.1,0,0-32-14.7-67.3,1.8Z"/>
      <path class="st3" d="M86.7,32.8c1,1.8,2.1,3.4,4,4.3,0,.2,0,.3,0,.5-4.6-.5-8.8-2-14.3-2.3-1.4-.8-4.7.2-5.4-1.2,2.7.2,5.9.1,8.7.4,1.8.2,3.9,1.2,4.8-.2-1.7.1-2.8-1.9-4.5-2.5-1.4-5.1-4.2-10.1-6-14,0,0,.1,0,.2,0,4.6,4.4,8.8,9.2,12.4,14.6"/>
      <path d="M39.8,44.8c-.2,0-.5,0-.6-.2-.3-.3-.4-.7-.3-1,.1-.5,4-13.1,36.1-26.3.2,0,.4,0,.7,0,.6.2,14.4,4.3,32.3,24.1.3.4.4.9,0,1.3-.3.4-.8.5-1.2.3-.1,0-13.2-6.1-31.4-6.1s-24,2.7-35,8c-.1,0-.3,0-.4,0ZM75.3,19.2c-22.5,9.3-30.6,18.3-33.3,22.5,10.5-4.6,21.6-6.9,33.2-6.9s22.7,2.8,28.1,4.6c-14.6-15.1-26-19.5-28-20.2Z"/>
      <path class="st7" d="M74.3,38.3c-.1.2-.2.4-.2.7-1.2.4-2.3-.4-3.9-.2-1,.1-2,1.2-2.9.4.4-2.5,5.5-2.3,7-.9Z"/>
      <path class="st7" d="M84.5,38.2c-.3.3.1.3,0,.9-.5.7-1.8.2-2.3-.2-.7-.1-2.1.7-3.2-.4.6-1.9,4.3-.9,5.6-.4Z"/>
      <path class="st7" d="M86.1,41.7c0,2-2.6.4-3.9.5-.9.1-2.2.6-2.9-.5,0-1.2,1.4-.8,2-.9,1.4-.2,3.4-.2,4.8.9Z"/>
      <path class="st7" d="M74.1,41.6v.5c-.3,1.2-2.2.4-3.4.5-1.7.1-2.9,1.3-4.5.9-.4-1.3,1.5-1.9,2.7-2.1,1.6-.4,3.9-.7,5.2.2Z"/>
      <path class="st7" d="M76.9,49.1c-.4-1.8,3-1.2,3.2-2.9-.5-1.5-1.9-.9-2.7-.9-.6-2.5,5.2-.7,3.8,1.4-1,1.2-2,2.5-4.3,2.3Z"/>
      <path class="st7" d="M84.3,46.1c1.3.7.1,1.5,1.1,2.7.2.4,1.3-.1,1.1.7-.4.9-.7.2-1.8.4-3.1,4-8.5,6-13.5,3.2-.5-.3-3-2.3-3-2.3-.9,0-1.5,2.8-2.7,1.8-.2-1.2.9-1.2,1.3-1.8.3-1.5,2.3-5.7,1.8-1.6,4.4,2.4,11.2,2.4,15.4-.4,0-1-.2-2.3.4-2.7ZM81.1,51.4c-3.3.9-7.9.3-10.4,0,3,2.5,7.4,2.6,10.4,0Z"/>
      <path class="st1" d="M70.7,51.4c2.5.3,7.1.9,10.4,0-3,2.6-7.4,2.5-10.4,0Z"/>
      <path class="st5" d="M96.9,60.4c-.2.6-.7.7-1.1,1.1-1.8-.1-4.2-.8-5.7.4-.2,2.4-.4,5,1.6,5.4,1.3.2,2.6-1.1,4.5-.7.3.3,0,1.1.5,1.3-.5.9-1.5.4-2.3.7-.9.3-1.7,1.2-2.9,1.3-.8-1.7-1.1-3.9-2.9-4.7,1.1-3.1-2.1-7.2-1.8-7.9.6-1.4,2.2-.6,3.2-.2,2.1.9,5.3,2.1,6.8,3.4Z"/>
      <path class="st5" d="M64.2,57c.9,1.5,3.6,6.4,2.5,7.5-.4.4-2.4,0-3.6.7-1.9,1-2.2,3.1-3,5.9-.7-.4-1.2-1.9-2.3-1.3,1.7.9,2.5,3.9.7,5.4-2.6.1-3.6-2.5-4.8-4.1-2.6-3.4-5.7-5.8-10.2-7.2-.2-2.5,3-2.7,5.2-2,1.4.5,2,2.3,2.9,2.7,1.7-2.7-5.4-3-1.4-5.4,1.9-1.2,6.8-1.9,9.5-2.3,1.8-.3,3.3-.3,4.7,0Z"/>
      <path class="st5" d="M81.6,64c-2,.4-5.7,0-7.4.2-.8-1.7-1.5-3.8-.9-5.2,2.3,1.4,5.4,1,7.4-.4.7,2.1,1.8,3.8.9,5.4Z"/>
      <path class="st1" d="M98.5,61.3v2.9c-1.2-.2-.8,1.3-1.3,1.8-.7-1.1-2.2-4.6,1.3-4.7Z"/>
      <path class="st1" d="M99.7,61.3c.8,0,1.1.5,2,.4,0,2-.2,1.8,0,3.4-.6.2-.8.7-1.4.9-.7-1.1-.9-3.7-.5-4.7Z"/>
      <path class="st1" d="M94,62h1.3c-.2,1.7.5,3.2.2,3.9-.8-.1-.9,0-1.6-.4-.2-1.5-.2-1.6.2-3.6Z"/>
      <path class="st1" d="M70.9,66c.3,1.9-3.2,2.1-3.2.4,0-1.5,2.5-1.9,3.2-.4Z"/>
      <path class="st1" d="M83.6,66.5c.3-2.1,3.1-1.8,3.2-.4.2,1.6-2.5,2-3.2.4Z"/>
      <path class="st3" d="M48.8,86c-2.7.6-3.4-2.2-2.7-3.8.4-.8,1-.7,1.1-1.3.1-.8-1.1-2.2-1.8-3.2-.4-.6-1-1.3-1.6-1.8-1.8-1.5-4.5-2.2-5.7-3.4-2.8-2.9,2.9-6.6,5.2-7.5,1.3-.5,4.9,1.7,5.6,2.2,2.5,1.9,4.6,5,6.5,7.4.9,3.7-2.9,7.4-5.6,9.7-.3.6-.5,1.3-.9,1.8Z"/>
      <path class="st3" d="M98.3,65.2h.5c.5.8,1.2,1.3,1.4,2.3,1.5,1.4,3.7,2.2,5,4.1,1.2,1.8,1.8,5.2.2,7-1.5,1.7-6.5,2.8-8.6.4-1,.4-2.6-.4-2.5-1.1.1-.8,1.6-.3,1.6-1.3-.4-.9-1.8.3-2.5-.4-.6-.6-.7-1.6-.5-2.7,1.1-.5,2,.8,2.9-.2-.6-1.1-3.2-.3-3.6-1.6.4-2.4,2-2.8,4.7-2.7.8-1.2.6-2.4,1.4-3.9Z"/>
      <path class="st5" d="M83.8,73.7c3.7,6.7-5.8,8.9-10.2,5.7-.3-1.4-1.2-4.5,0-5.7,3.8.2,7,1.1,10.2,0Z"/>
      <path class="st1" d="M96.3,79.9c1,0,1.3.8,2.2,1.1-.1.5-.2,1.7-1.1,2-.3-1.1-.7-2.1-1.1-3Z"/>
      <path class="st1" d="M46.1,80.8c-.5.5-.7,1.2-1.1,1.8-.8-.3-1.1-1-1.3-2,.4-.8,2.1-.6,2.3.2Z"/>
      <path class="st8" d="M99,81.4c1.2-.1,2.7.2,2.9-.4.8,1.2,2.7,7.9,1.3,10.6-.8,1.4-3.7,2.2-4.8.4-.5-.8-.5-2.2-.5-2.9-.1-2.7.7-5,1.3-7.7Z"/>
      <path class="st1" d="M41.1,83.3c1.1.1,2.7.2,4.1.2,0,1.6.5,3.3,2.7,3.2-6.6,4.5-13.2,9.1-20.3,13.1-1.8-2.8-1.1-7.4-.9-10.2,1.3-.2,2,.4,3.8.4.4-.7.7-1.4.7-2.5,2.5-.6,4.4,1.3,5.9-2.3,1.5,0,1.5.2,3.4.2.9-.6.2-.9.5-2Z"/>
      <path class="st7" d="M74.8,109c.8-.9,1.7.3,2.3.5,4.1,1.6,9.8-.1,14-2.7,1.8-1.1,3.4-1.8,3.9-3.8,5.5-.3,11.1-.5,15.2,1.4,2.9,1.9,2.1,4.8-2.3,5.6-4.1.7-11.5,1-16.9,1.3-6.5.3-12.2-.3-16.3-2.3Z"/>
      <g>
        <path class="st4" d="M110.5,63.6c-2.9-4.3-8.1-1.4-12.6-3.2-.7-.3-1-1-1.6-1.4-2.2-1.6-5.2-2.2-7.2-3.6,1.4-1.9,1.5-4.2,1.4-6.5,0-1.7-.1-1.3,1.1-2.3,1.6-1.3.7-2.5.7-3.9-.7-1-1.8-1-3.1-1.7-1.1-.6-1.5-2-1.7-3.1,0,0,0-.2,0-.3-.1,0-.2,0-.3,0,0,0-.2,0-.3,0,.4,1.2.7,2.5.8,3.9,2.6-.3,4.6.9,4.3,3.2-.2,1.4-1.9,1.3-2.3,2.2-.3.6.2,1.9.2,3.2,0,1.6-.2,4.4-1.8,5.6-1.8,1.2-4.9.4-6.1.9-1.4.6-2.4,2.1-3.8,2.5-1.7.5-3.3,0-4.5-.5-1.1-.6-1.8-2.1-3.6-2.3-4.2-.5-6.7,1.3-10.2-1.1-1.1-.7-2.9-2.7-3.4-4.1-.3-1.1.2-1.7-.5-3.4-.5-1.1-2.1-2.4-1.8-3.8.3-1.3,2.8-2.1,4.5-1.1,1.1.6,1.1,2.9,2.9,2.5.7-.2,2.4-4.1,2.5-4.8.3-1.5-.4-2.3,0-3.8-.1,0-.3,0-.4,0-.5,2-1.7,3.6-4.4,4.1-2.6.5-7.6.4-5.2,4.4.7,1.1,1.2,2.1,1.4,3.3.3.7.4,1.4.1,2.3.9,2.2,3.1,4,4.3,5.4-4.4,1-10.3,1.1-12.4,5.2-2.8-.8-5.8.4-4.7,3-2.4,1.7-6.5,3.2-6.5,6.5.1,4.4,8.1,3.9,8.6,8.6-1-.1-1.5.3-2,.7-.2,1.4.5,1.7.7,2.7-.8-.2-2.7-.3-3.2-.2-.5.7,0,1.8-.5,2-.7-.2-2.2-.2-3.6-.2-.3.7-.6,1.6-1.1,2.2-1.4,0-3.6,0-4.5,0-.3.8-.4,1.9-.9,2.5-1.3.2-2.9-.7-3.8-.4-.3,1.9-.6,3.4-.5,6.1,0,1.8.4,5.7,2.1,5.9.6,0,1.7-1.1,2.5-1.6,2.7-1.8,5.5-3.4,7.7-4.8,4-2.6,6.9-5,10.4-6.5-.3,3.9,1.1,6.2,3.9,7.4,1.9,3.1-1.1,4.5-2.3,6.8,6.6,5.4,16.5,9.4,25.6,4.7,5.6,4.4,13.8.3,18.3-4.1-.8-.8-1.6-1.5-2.5-2.2-.4-1.6-.5-3.1-.7-4.3,2.7-.9,4.8-2.4,6.8-3.9.5.9,1.1,1.4,2,1.6,6.7,1.4,4.6-9.2,3.6-12.9,1.1-.4,1.8-1.2,2.9-1.6.9-1.3,1.3-3.5,1.1-5.2-.5-3.4-4.6-5.4-5.9-7.4,2.1-2.2,4.8-.9,7.5-.2-.8-1.4.3-2.1,1.8-2.9ZM46.1,80.8c-.5.5-.7,1.2-1.1,1.8-.8-.3-1.1-1-1.3-2,.4-.8,2.1-.6,2.3.2ZM27.6,99.8c-1.8-2.8-1.1-7.4-.9-10.2,1.3-.2,2,.4,3.8.4.4-.7.7-1.4.7-2.5,2.5-.6,4.4,1.3,5.9-2.3,1.5,0,1.5.2,3.4.2.9-.6.2-.9.5-2,1.1.1,2.7.2,4.1.2,0,1.6.5,3.3,2.7,3.2-6.6,4.5-13.2,9.1-20.3,13.1ZM49.7,84.2c-.3.6-.5,1.3-.9,1.8-2.7.6-3.4-2.2-2.7-3.8.4-.8,1-.7,1.1-1.3.1-.8-1.1-2.2-1.8-3.2-.4-.6-1-1.3-1.6-1.8-1.8-1.5-4.5-2.2-5.7-3.4-2.8-2.9,2.9-6.6,5.2-7.5,1.3-.5,4.9,1.7,5.6,2.2,2.5,1.9,4.6,5,6.5,7.4.9,3.7-2.9,7.4-5.6,9.7ZM66.7,64.5c-.4.4-2.4,0-3.6.7-1.9,1-2.2,3.1-3,5.9-.7-.4-1.2-1.9-2.3-1.3,1.7.9,2.5,3.9.7,5.4-2.6.1-3.6-2.5-4.8-4.1-2.6-3.4-5.7-5.8-10.2-7.2-.2-2.5,3-2.7,5.2-2,1.4.5,2,2.3,2.9,2.7,1.7-2.7-5.4-3-1.4-5.4,1.9-1.2,6.8-1.9,9.5-2.3,1.8-.3,3.3-.3,4.7,0,.9,1.5,3.6,6.4,2.5,7.5ZM98.5,61.3v2.9c-1.2-.2-.8,1.3-1.3,1.8-.7-1.1-2.2-4.6,1.3-4.7ZM73.4,59c2.3,1.4,5.4,1,7.4-.4.7,2.1,1.8,3.8.9,5.4-2,.4-5.7,0-7.4.2-.8-1.7-1.5-3.8-.9-5.2ZM67.6,66.3c0-1.5,2.5-1.9,3.2-.4.3,1.9-3.2,2.1-3.2.4ZM73.5,79.4c-.3-1.4-1.2-4.5,0-5.7,3.8.2,7,1.1,10.2,0,3.7,6.7-5.8,8.9-10.2,5.7ZM83.6,66.5c.3-2.1,3.1-1.8,3.2-.4.2,1.6-2.5,2-3.2.4ZM88.6,65.1c1.1-3.1-2.1-7.2-1.8-7.9.6-1.4,2.2-.6,3.2-.2,2.1.9,5.3,2.1,6.8,3.4-.2.6-.7.7-1.1,1.1-1.8-.1-4.2-.8-5.7.4-.2,2.4-.4,5,1.6,5.4,1.3.2,2.6-1.1,4.5-.7.3.3,0,1.1.5,1.3-.5.9-1.5.4-2.3.7-.9.3-1.7,1.2-2.9,1.3-.8-1.7-1.1-3.9-2.9-4.7ZM95.4,66c-.8-.1-.9,0-1.6-.4-.2-1.5-.2-1.6.2-3.6h1.3c-.2,1.7.5,3.2.2,3.9ZM97.4,83c-.3-1.1-.7-2.1-1.1-3,1,0,1.3.8,2.2,1.1-.1.5-.2,1.7-1.1,2ZM103.1,91.6c-.8,1.4-3.7,2.2-4.8.4-.5-.8-.5-2.2-.5-2.9-.1-2.7.7-5,1.3-7.7,1.2-.1,2.7.2,2.9-.4.8,1.2,2.7,7.9,1.3,10.6ZM105.3,71.7c1.2,1.8,1.8,5.2.2,7-1.5,1.7-6.5,2.8-8.6.4-1,.4-2.6-.4-2.5-1.1.1-.8,1.6-.3,1.6-1.3-.4-.9-1.8.3-2.5-.4-.6-.6-.7-1.6-.5-2.7,1.1-.5,2,.8,2.9-.2-.6-1.1-3.2-.3-3.6-1.6.4-2.4,2-2.8,4.7-2.7.8-1.2.6-2.4,1.4-3.9h.5c.5.8,1.2,1.3,1.4,2.3,1.5,1.4,3.7,2.2,5,4.1ZM101.7,65.1c-.6.2-.8.7-1.4.9-.7-1.1-.9-3.7-.5-4.7.8,0,1.1.5,2,.4,0,2-.2,1.8,0,3.4ZM105.3,64.7c-1.2,0-1.4,0-2.5,0-.4-2,.4-3.9,2.7-2.9.2.4.3,2.2-.2,2.9Z"/>
        <path class="st11" d="M67.1,109.1c-1.7,0-3.4-.2-5.2-.7-5.2-1.3-9.4-4.1-12-6.2l-.2-.2v-.2c.5-.7,1-1.3,1.5-1.9,1.2-1.4,2.2-2.5,1-4.5-2.9-1.2-4.2-3.5-4.1-7.1-2.2,1-4.1,2.3-6.4,3.9-1.1.8-2.2,1.5-3.5,2.3-.9.6-2,1.2-3.1,1.9-1.5.9-3.1,1.9-4.6,2.9-.3.2-.5.4-.8.6-.7.6-1.4,1.1-1.9,1-1.9-.2-2.4-3.5-2.4-6.2,0-2.6.2-4.1.5-5.9v-.5c0,0,.3,0,.3,0,.5-.2,1.2,0,2,.1.6.1,1.2.3,1.8.2.2-.3.3-.8.5-1.3,0-.4.2-.7.3-1v-.2c0,0,.3,0,.3,0,.4,0,1.2,0,2,0,.8,0,1.6,0,2.3,0,.3-.4.5-.8.7-1.3,0-.2.2-.4.3-.7v-.2c0,0,.7,0,.7,0,1.3,0,2.5,0,3.2.2,0-.1,0-.4,0-.5,0-.4,0-.9.3-1.3h0c0,0,.1-.1.1-.1.5-.2,1.9,0,2.8,0,0-.1-.1-.2-.2-.3-.3-.5-.5-1-.4-2h0c0-.1.2-.3.2-.3.4-.3.9-.7,1.7-.7-.4-1.9-2.3-2.8-4.2-3.8-2.1-1-4.2-2.1-4.3-4.5,0-2.7,2.5-4.3,4.8-5.6.6-.3,1.1-.6,1.6-1-.3-.9-.2-1.8.4-2.4.9-1,2.7-1.3,4.5-.9,1.8-3.3,6-4,9.7-4.6.8-.1,1.5-.3,2.2-.4-.2-.2-.4-.4-.7-.7-1.2-1.2-2.6-2.6-3.3-4.4h0c0-.1,0-.2,0-.2.2-.7.2-1.4,0-2.1h0c-.2-1.2-.8-2.3-1.4-3.2-.7-1.2-.9-2.1-.5-2.8.6-1.3,2.8-1.6,4.6-1.9.5,0,.9-.1,1.3-.2,2.3-.4,3.6-1.7,4.2-3.9v-.2c0,0,.3,0,.3,0,0,0,.2,0,.3,0h.6c0,0-.1.4-.1.4-.2.7-.2,1.3,0,1.9,0,.5.1,1.1,0,1.9-.1.6-1.8,4.9-2.8,5.1-1.3.3-1.9-.7-2.3-1.5-.2-.4-.5-.9-.8-1.1-1-.6-2.2-.5-3-.1-.5.2-.9.6-1,1-.2.8.5,1.6,1,2.4.3.4.6.8.8,1.2.5,1.1.5,1.7.4,2.4,0,.4,0,.7.1,1.1.4,1.3,2.1,3.2,3.3,3.9,2.1,1.4,3.9,1.3,5.9,1.1,1.2-.1,2.6-.2,4.2,0,1.2.2,2,.9,2.7,1.5.4.3.7.7,1,.8,1,.5,2.6,1,4.2.5.7-.2,1.2-.7,1.9-1.2.6-.5,1.2-1,1.9-1.3.5-.2,1.3-.2,2.2-.2,1.3,0,2.8,0,3.8-.7,1.6-1.1,1.6-4.1,1.6-5.3,0-.5,0-1.1-.2-1.6-.1-.8-.2-1.4,0-1.8.2-.5.7-.7,1.2-.9.6-.3,1-.5,1.1-1.1.1-.8,0-1.4-.6-1.9-.7-.7-1.9-1-3.4-.9h-.4s0-.3,0-.3c0-1.3-.3-2.6-.8-3.8l-.2-.6.6.2c0,0,.2,0,.3,0,0,0,.1,0,.2,0h.3v.3c0,0,0,.1,0,.2h0c.2,1.1.5,2.5,1.5,3,.4.2.8.4,1.2.5.7.3,1.4.6,2,1.3h0c0,0,0,.2,0,.2,0,.3,0,.6.1.9.2,1,.4,2.1-.9,3.2-.2.2-.4.3-.5.4q-.5.4-.5,1.3c0,.1,0,.3,0,.4,0,2.2,0,4.4-1.3,6.4.9.6,1.9,1,3.1,1.5,1.3.5,2.7,1.1,3.8,1.9.3.2.5.4.7.7.3.3.5.6.8.7,1.7.7,3.5.7,5.3.7,2.9,0,5.5,0,7.4,2.7l.2.3-.4.2c-1,.5-1.7.9-1.8,1.4,0,.3,0,.6.2,1l.4.7-.8-.2c-.4-.1-.8-.2-1.3-.4-2.2-.7-4.2-1.2-5.7.2.5.6,1.1,1.2,1.9,1.8,1.7,1.5,3.6,3.1,3.9,5.5.3,1.8-.2,4-1.1,5.4h0c0,0,0,.1,0,.1-.4.2-.8.4-1.2.7-.4.3-.9.6-1.4.8.8,3,2.1,9.6-.3,12.1-.9.9-2.1,1.2-3.7.9-.8-.2-1.5-.7-2-1.4-1.7,1.3-3.7,2.7-6.3,3.7,0,.3,0,.6.1,1,.1.9.3,1.8.5,2.9h.2c.8.7,1.6,1.4,2.3,2.1l.2.2-.2.2c-4.3,4.2-12.7,8.7-18.6,4.3-2.7,1.4-5.6,2-8.6,2ZM50.5,101.9c3.4,2.7,14.2,10.1,25,4.4h.2c0-.1.2,0,.2,0,5.4,4.3,13.4.1,17.6-3.9-.6-.6-1.3-1.1-2-1.7l-.3-.3h0c-.3-1.2-.4-2.3-.5-3.2,0-.4-.1-.9-.2-1.3v-.3s.2,0,.2,0c2.8-1,5-2.5,6.7-3.9l.3-.3.2.4c.4.8,1,1.3,1.7,1.4,1.4.3,2.4,0,3.1-.7.1-.2.3-.3.4-.5-.6.7-1.6,1.1-2.7,1.1-1.1,0-1.9-.4-2.4-1.2-.5-.8-.6-2.1-.6-2.9h0c0-2.3.4-4.2.9-6.2,0-.2,0-.3.1-.5-.2.4-.5.7-.9.9h-.3c0,.1,0-.2,0-.2-.3-1-.6-2-1.1-3l-.2-.5h.6c.6.1,1.1.4,1.4.7.3.2.5.4.8.5h.3c0,0,0,.4,0,.4h.2c.4,0,.8,0,1.2,0,.5,0,1.3,0,1.4-.1v-.2c-.4,0-.8,0-1.2,0-1.1,0-2.6-.3-3.6-1.4-.8.2-1.8-.1-2.3-.6-.3-.3-.5-.6-.4-1,0-.6.7-.7,1.1-.8.4,0,.5-.1.5-.3,0-.1-.3-.1-.8,0-.5,0-1.1.2-1.6-.2h0c-.6-.7-.9-1.8-.6-3v-.2s.2,0,.2,0c.6-.3,1.2-.1,1.6,0,.4.1.7.2.9,0-.3-.2-.8-.3-1.3-.3-.9-.1-1.8-.2-2.1-1.1h0c0,0,0-.2,0-.2.2-1,.5-1.8,1.1-2.2-.4.2-.9.4-1.5.4h-.2s0-.2,0-.2c-.2-.4-.4-.9-.5-1.4-.5-1.3-1-2.6-2.2-3.1h-.3c0-.1.1-.4.1-.4.7-1.9-.5-4.4-1.2-6-.5-1.1-.7-1.6-.6-1.9.1-.3.3-.5.5-.6-.9.2-2,.2-2.9.2-.8,0-1.6,0-1.9.2-.6.3-1.2.7-1.7,1.2-.6.5-1.3,1.1-2.1,1.3,0,0,0,0,0,0,.9-.2,1.6-.5,2.3-1l.4-.3v.4c.3.5.5,1,.7,1.5.6,1.5,1.1,2.8.3,4.2h0c0,.1-.2.2-.2.2-1.3.3-3.2.2-4.9.2-1,0-1.9,0-2.5,0h-.2s0-.2,0-.2c-1.1-2.4-1.4-4.2-.9-5.5v-.4c-.1-.2-.4-.5-.7-.7-.6-.6-1.3-1.2-2.3-1.3-1.5-.2-2.8,0-4,0-.7,0-1.4.1-2.1.1,0,0,.2,0,.3,0h.1s0,.2,0,.2c.4.7,3.9,6.5,2.5,7.9h0s0,0,0,0c-.3.3-.8.3-1.5.3-.7,0-1.6.1-2.2.4-1.5.8-2,2.4-2.6,4.7,0,.3-.2.7-.3,1v.4c-.1,0-.5-.3-.5-.3-.2-.2-.4-.4-.6-.6-.2-.2-.4-.4-.5-.5.6.6.9,1.5,1,2.4.1,1.2-.3,2.2-1.1,2.9h0c0,0-.1,0-.1,0-1.4,0-2.4-.6-3.2-1.5,0,0,.1.2.2.2h0c0,0,0,.1,0,.1.9,3.8-2.8,7.5-5.6,10-.3.6-.5,1.2-.9,1.8h0c0,.1-.1.1-.1.1,0,0,0,0,0,0h.3s-1,.7-1,.7c-1,.7-2,1.3-2.9,2-3.2,2.2-6.5,4.4-9.9,6.6.9-.6,1.8-1.1,2.6-1.6,1.2-.8,2.4-1.6,3.4-2.3,2.5-1.7,4.6-3.2,7-4.2l.5-.2v.5c-.3,3.6.9,5.9,3.7,7h.1s0,.1,0,.1c1.5,2.4.2,3.9-1,5.4-.4.5-.8,1-1.2,1.5ZM26.4,89.5c-.3,1.6-.5,3-.4,5.3.1,3.4.8,5.5,1.8,5.6.3,0,1-.5,1.4-.9.3-.2.6-.5.9-.7.4-.3.8-.5,1.2-.8-1.2.7-2.4,1.4-3.6,2.1l-.3.2-.2-.3c-1.7-2.6-1.3-6.6-1-9.5,0-.3,0-.6,0-.9h0ZM27,89.9c0,.2,0,.4,0,.6-.3,2.7-.6,6.4.8,8.8,5.9-3.4,11.6-7.2,17-10.9.7-.5,1.4-1,2.2-1.5-.4-.1-.8-.3-1.1-.6-.6-.5-.9-1.4-1-2.5-1.3,0-2.6,0-3.5-.2,0,.2,0,.4,0,.6,0,.5,0,.9-.6,1.3h0c0,0-.1,0-.1,0-1.2,0-1.7,0-2.2,0-.3,0-.6,0-1,0-1.1,2.5-2.5,2.4-4,2.3-.6,0-1.2,0-1.8,0,0,1-.4,1.7-.7,2.4v.2c0,0-.3,0-.3,0-.8,0-1.5-.1-2-.2-.5-.1-.9-.2-1.5-.2ZM99.3,81.7c-.1.5-.2,1-.3,1.4-.5,2-.9,3.9-.8,5.9h0c0,.8,0,2,.5,2.7.5.8,1.4.9,1.8.9,1,0,2-.6,2.4-1.2h0c1.3-2.3-.2-8.1-1-9.9-.4.2-1,.2-1.6.1-.3,0-.6,0-.9,0ZM27.3,89.2c.5,0,.9,0,1.4.2.5.1,1,.2,1.6.2.3-.6.5-1.2.6-2-.1.6-.3,1.2-.6,1.6h0c0,.1-.1.1-.1.1-.7.1-1.5,0-2.2-.2-.5-.1-1-.2-1.4-.2h0c0,.2,0,.2,0,.3h.2c.2,0,.4,0,.6,0ZM31.1,86.9c0,0,0,.2,0,.2h.1c.8-.2,1.6-.2,2.3-.1.7,0,1.3.1,1.9-.2-.7,0-1.5,0-2.4,0-.7,0-1.4,0-1.8,0ZM36.6,84.8c0,.1-.1.3-.2.4-.2.5-.4,1-.8,1.5.4-.3.8-.8,1.1-1.7v-.2c0,0,.3,0,.3,0,.6,0,1,0,1.3,0,.5,0,.9,0,2,0,.3-.2.3-.3.2-.6,0,0,0,0,0-.1,0,.3-.2.6-.6.7h0s0,0,0,0c-.6-.2-1.9-.2-3.1-.2h-.2ZM45.7,84.7c.1.5.3.9.6,1.2.3.3.8.5,1.4.5-.6,0-1.2-.4-1.6-.9-.2-.2-.3-.5-.4-.8ZM102,80.7v.2c.6.7,1.4,3.1,1.8,5.6-.2-2.3-.7-4.5-1-5.5v-.3c0,0,.2,0,.2,0,.3-.1.7-.3.9-.4-.6.3-1.3.5-1.9.6ZM43.7,65.3c-.1,0-.3,0-.4,0-1.6.7-5.3,2.9-5.7,5.1-.1.7,0,1.3.6,1.9.5.5,1.5,1,2.5,1.5,1.1.5,2.3,1.1,3.2,1.9.6.5,1.2,1.2,1.7,1.9.1.2.2.3.4.5.7,1,1.6,2.2,1.5,3,0,.4-.3.6-.5.7-.2.1-.4.3-.6.6-.4.8-.3,2,.2,2.7.4.6,1.1.8,1.9.6.3-.5.6-1.1.8-1.6h0c0,0,0-.1,0-.1,2.7-2.3,6.2-5.8,5.5-9.3-.3-.4-.6-.8-1-1.3-1.6-2.1-3.3-4.4-5.4-6-.8-.6-3.6-2.2-4.8-2.2ZM40.8,82.9c0,.2,0,.4,0,.6,0-.1,0-.2,0-.3v-.3c0,0,.4,0,.4,0,.8,0,1.8.2,2.8.2h-.2c-.8-.2-2.4-.3-2.9-.3ZM44.2,83.2c.3,0,.7,0,1,0h.3c0-.4.1-.7.3-1.1.2-.5.5-.7.8-.9.2-.1.3-.2.3-.3,0-.5-.8-1.7-1.4-2.5-.1-.2-.3-.4-.4-.5-.4-.6-1-1.3-1.6-1.7-.9-.7-2-1.3-3.1-1.8-1.1-.5-2.1-1-2.7-1.6-.7-.7-1-1.6-.8-2.5.3-1.5,1.9-3,3.5-4.1-1.9,1.1-3.7,2.5-3.7,4.6,0,2,1.9,2.9,3.9,3.9,2.2,1.1,4.4,2.2,4.7,4.7v.4s-.4,0-.4,0c-.8,0-1.2.2-1.6.6,0,.7.1,1,.3,1.5.2.3.3.6.4,1v.4ZM96.9,80.5c.3.7.5,1.3.7,2,.3-.3.4-.8.5-1.2,0,0,0,0,0,0-.3-.1-.5-.3-.7-.5-.1-.1-.3-.2-.4-.3ZM97,78.6l.2.2c.9,1,2.3,1.3,3.3,1.3,2.1,0,4.1-.8,4.8-1.7,1.4-1.6,1-4.8-.2-6.6h0c-.8-1.2-2-1.9-3.1-2.7-.7-.4-1.3-.9-1.9-1.4h0c0,0,0-.2,0-.2-.1-.7-.5-1.1-.9-1.6-.1-.2-.3-.3-.4-.5h-.2c-.3.7-.5,1.2-.6,1.8-.2.7-.3,1.3-.8,2v.2c-.1,0-.3,0-.3,0-2.9-.2-4,.4-4.3,2.3.2.4.7.5,1.5.6.8,0,1.6.2,2,.9v.2c.1,0,0,.2,0,.2-.6.7-1.3.5-1.8.3-.4-.1-.7-.2-1-.1-.1.9,0,1.7.5,2.2.2.2.6,0,1,0,.5-.1,1.3-.3,1.6.5h0c0,0,0,.1,0,.1,0,.8-.7.9-1.1,1-.4,0-.5.1-.5.3,0,0,0,.2.2.3.4.4,1.3.6,1.9.4h.2ZM106,78.5c0,.1-.2.3-.3.4,0,0,0,0-.1.1,0,0,.1,0,.2,0,0-.1.2-.3.2-.4ZM105.7,71.7c.7,1.1,1.1,2.5,1.1,3.9,0-.5,0-1.1,0-1.5-.1-.9-.5-1.7-1.1-2.4ZM43.7,63.7c4.2,1.3,7.3,3.5,10.2,7.2.3.4.6.8.8,1.2.9,1.4,1.9,2.8,3.6,2.8.8-.7.8-1.7.8-2.3-.1-1.1-.7-2.1-1.5-2.5l-.5-.3.5-.3c1.1-.6,1.7.2,2.2.8,0,0,0,.1.1.2,0-.2,0-.3.1-.5.6-2.3,1.1-4.1,2.9-5.1.8-.4,1.7-.5,2.5-.5.4,0,.9,0,1-.1.7-.7-.8-4.1-2.5-7-1.3-.2-2.8-.2-4.4,0h-.5c-2.7.5-7.2,1.2-8.9,2.3-.9.6-1,.9-1,1.1,0,.3.6.7,1.2,1.1,1,.7,2.4,1.6,1.4,3.1l-.2.3h-.3c-.4-.3-.8-.8-1.1-1.3-.5-.6-1-1.3-1.7-1.5-1.4-.5-3.3-.5-4.2.2-.4.3-.5.7-.5,1.2ZM50.6,68.3c1.5,1.4,2.8,3.2,3.9,4.7,0,0,0,0,0,0-.1-.2-.3-.4-.4-.6-.3-.4-.5-.8-.8-1.1-.9-1.2-1.8-2.2-2.8-3ZM100.6,67.4c.5.5,1.1.8,1.7,1.3.5.3,1,.6,1.5,1-.2-.2-.5-.4-.7-.6-.9-.7-1.7-1.4-2.1-2.1l-.2-.2.2-.2c1.9-2,4.3-1.3,6.6-.6.2,0,.4.1.6.2,0-.3,0-.6,0-.9.2-.7,1-1.2,1.8-1.6-1.2-1.5-2.8-2-4.6-2.1,0,0,.1,0,.2,0h.1s0,.2,0,.2c.2.5.4,2.4-.2,3.2h-.1c0,.1-.2.1-.2.1-.3,0-.5,0-.7,0-.6,0-.9,0-1.8,0h-.3s0-.3,0-.3c-.3-1.4,0-2.6.7-3.2,0,0,.2-.1.3-.2,0,0,0,0,0,0-.4,0-.9,0-1.3,0v.2c0,.8,0,1.3,0,1.6,0,.5,0,.8,0,1.7v.3s-.2,0-.2,0c-.2,0-.4.2-.6.4-.2.2-.5.4-.9.5h-.2c0,0-.1-.1-.1-.1-.7-1.1-1-3.8-.6-5h0c-.2,0-.4,0-.6-.1v3.5h-.4c-.4-.1-.5,0-.6.6,0,.1,0,.2,0,.3,0-.1.1-.3.2-.4v-.2h1.1c.1.4.3.6.5.8.4.5.8,1,1,1.7ZM90.9,67.3c.1.3.3.6.4,1,.1.4.3.7.4,1.1.5,0,1-.4,1.4-.6.4-.2.7-.4,1.1-.6.3-.1.7-.1,1-.1.5,0,.7,0,1-.2-.1-.2-.2-.5-.2-.7,0-.1,0-.2,0-.3-.9-.2-1.6.1-2.4.4-.7.2-1.3.5-1.9.4-.3,0-.5-.1-.7-.2ZM97.1,67.6l-.2.3c-.4.7-1.1.7-1.7.8-.3,0-.6,0-.8,0-.3,0-.6.2-.8.4.8-.3,1.8-.4,3.1-.4.2-.4.3-.8.5-1.2ZM95.7,66.1c.2,0,.3,0,.5,0h.1s0,0,0,0c.2.2.2.5.3.8,0,.2,0,.4.1.4h.4s0,0,0-.2c0-.4.2-.8.3-1.2,0,0,0,.1-.1.1l-.3.3-.2-.4c-.5-.9-1.4-2.8-.7-4.1.4-.7,1.1-1.1,2.3-1.1h0c-.2,0-.5-.2-.7-.2-.2,0-.4-.2-.6-.4h0c-.1.6-.5.9-.8,1.1-.1,0-.3.2-.4.3h-.1c0,.1-.2,0-.2,0,0,0-.1,0-.2,0v.3c-.1.8,0,1.6.1,2.3.1.7.2,1.3,0,1.8ZM90.4,62h0c-.2,2.7-.2,4.6,1.3,4.9.5,0,1-.1,1.6-.3.4-.1.7-.3,1.2-.4-.2,0-.5-.1-.8-.3h-.2c0,0,0-.3,0-.3-.2-1.5-.2-1.6.2-3.6v-.3h.8c-1.4-.2-3-.3-4.1.3ZM94.1,65.4c.3.1.5.2.8.2,0,0,.2,0,.3,0,0-.3,0-.7-.1-1.1,0-.6-.2-1.3-.2-2.1h-.6c-.3,1.6-.3,1.8-.1,3ZM100,61.6c-.2.9,0,2.8.4,3.9.1,0,.3-.2.4-.3.2-.1.3-.3.5-.4,0-.8,0-1.1,0-1.6,0-.3,0-.6,0-1.2-.4,0-.7-.1-.9-.2-.2,0-.3-.1-.5-.2ZM89,64.9c.3.1.5.3.7.5-.2-1-.1-2.3,0-3.4v-.3s.1,0,.1,0c1.3-1,3.1-.7,4.7-.6.4,0,.7,0,1.1.1.1,0,.2-.2.3-.2.2-.1.4-.2.4-.4-1.4-1.1-4-2.2-5.9-2.9l-.8-.3c-1.2-.5-2.2-.8-2.6,0,0,.2.3.8.6,1.4.8,1.7,1.9,4.1,1.3,6.2ZM98.1,61.7c-.7,0-1.1.3-1.3.7-.4.7,0,1.9.4,2.8,0,0,0,0,0,0,0-.5.2-1.2,1-1.3v-2.2ZM43.2,64.3v.2c0,0-.1.2-.1.2-.2.2-.5.3-.8.5.3-.2.6-.3.8-.4.4-.2,1.1-.1,1.8,0-.5-.2-1-.4-1.6-.5h-.1ZM103.8,64.3c.2,0,.5,0,.8,0,.2,0,.3,0,.5,0,.3-.6.2-1.8.1-2.3-.5-.2-1.2-.3-1.6,0-.5.4-.7,1.2-.5,2.2.3,0,.6,0,.8,0ZM47.8,61.5c.3,0,.6.1.9.2.9.3,1.6,1.1,2,1.8.2.3.4.5.6.7.2-.7-.3-1.1-1.4-1.8-.8-.5-1.5-1-1.5-1.7,0-.1,0-.2,0-.3-.3.3-.5.7-.7,1.1h0ZM45.2,61.4c-.8,0-1.4.4-1.8.8-.4.4-.5,1-.3,1.7,0-.8.2-1.4.8-1.9.4-.3.8-.5,1.3-.6ZM75.3,63.8c.5,0,1,0,1.6,0,1.6,0,3.3,0,4.6-.1.5-1,0-2.1-.5-3.5-.1-.4-.3-.7-.4-1.1-1.9,1.1-4.7,1.5-7,.3-.2,1,0,2.5.9,4.3.2,0,.5,0,.8,0ZM88,56.1c.7,0,1.4.3,2,.5l.8.3c2,.8,4.5,1.8,6,3,0,0,0,0,0,0-.2-.2-.4-.4-.6-.6-1.1-.8-2.4-1.3-3.7-1.9-1.3-.5-2.5-1-3.5-1.7l-.3-.2c-.1.1-.3.3-.4.4-.1,0-.2.2-.4.2,0,0,0,0,.1,0ZM74,58.9c.4.2.8.3,1.2.4-.4-.1-.8-.2-1.2-.4ZM59.4,55.1c.3.3.5.5.8.8l.4.4h-.6c-.9.3-1.8.5-2.8.7-2,.3-4,.7-5.7,1.4,2.2-.7,5.3-1.2,7.5-1.6h.5c1-.2,2-.3,2.9-.3-.8-.2-1.7-.5-2.7-1.2,0,0-.2-.1-.3-.2ZM87.1,57.3s0,0,0,0c0,0,0,0,0,0ZM92.2,45.1c-.3.7-.9.9-1.4,1.2-.4.2-.7.4-.9.6-.1.2,0,.8,0,1.4,0,.5.2,1.1.2,1.7,0,.7,0,2-.4,3.2.4-1.4.4-2.9.4-4.3,0-.1,0-.3,0-.4,0-1.1,0-1.2.7-1.8.1-.1.3-.2.5-.4.5-.4.7-.8.8-1.2ZM56,50.7c.2.4.3.7.6,1.1-.1-.3-.3-.5-.3-.8,0-.2-.1-.5-.1-.7,0,.1,0,.3,0,.4ZM55.8,48.3c0,.2.1.4.2.6,0-.3-.1-.7-.3-1.2,0,.2.1.4.1.6ZM56.9,41.8c.7,0,1.4.2,2,.5.5.3.8.8,1,1.3.5.9.8,1.3,1.6,1.2.5-.2,2.1-3.7,2.3-4.6.1-.7,0-1.1,0-1.7,0-.2,0-.4,0-.7-.8,1.7-2.2,2.7-4.2,3.1-.4,0-.9.1-1.3.2-1.6.2-3.6.5-4.1,1.5-.1.3-.1.6,0,.9,0,0,0,0,0,0,.1-.6.6-1.1,1.4-1.5.5-.2,1.1-.3,1.7-.3ZM87.9,40.1c0,.3,0,.6,0,.9.2,0,.4,0,.6,0-.3-.2-.5-.6-.7-.9ZM45.2,83h-.2c-.8-.4-1.3-1.1-1.5-2.3h0c0,0,0-.2,0-.2.2-.5.8-.8,1.4-.7.6,0,1.3.3,1.5.9v.2c0,0,0,.1,0,.1-.2.3-.4.6-.6,1-.1.3-.3.5-.5.8l-.2.2ZM44.1,80.7c.1.7.4,1.2.8,1.5,0-.1.2-.3.2-.5.2-.3.3-.6.5-.9-.2-.2-.5-.3-.8-.3-.3,0-.6,0-.7.2ZM78.4,81.1c-1.8,0-3.7-.5-5.1-1.5h-.1c0,0,0-.2,0-.2,0-.2-.1-.5-.2-.8-.4-1.6-.9-4.1.3-5.2h.1c0-.1.1,0,.1,0,1.1,0,2.1.2,3,.3,2.6.3,4.8.5,7.1-.2h.3c0,0,.1.2.1.2,1.8,3.2.5,5.1-.5,6-1.2,1.1-3.2,1.7-5.2,1.7ZM73.8,79.2c2.7,1.8,7.1,1.7,9.3-.2,1.3-1.2,1.5-2.9.5-4.9-2.3.7-4.6.4-7.1.2-.9,0-1.9-.2-2.8-.3-.8.9-.3,3.1,0,4.5,0,.2.1.5.1.7ZM85.3,67.9c-.8,0-1.6-.4-2-1.3h0c0,0,0-.2,0-.2.2-1.3,1.2-1.8,2.1-1.8,1,0,1.7.6,1.8,1.4,0,.8-.4,1.5-1.2,1.7-.2,0-.4,0-.6,0ZM83.9,66.4c.4.7,1.2.9,1.8.7.2,0,.8-.3.8-1,0-.5-.6-.8-1.2-.8,0,0,0,0,0,0-.6,0-1.2.3-1.4,1.1ZM69.2,67.9c-.4,0-.7,0-1-.2-.5-.3-.8-.7-.9-1.3h0c0-.8.5-1.4,1.4-1.6.9-.2,2,0,2.5,1.1h0s0,0,0,0c0,.6-.1,1.2-.6,1.5-.4.3-.9.4-1.4.4ZM68,66.3c0,.3.2.6.5.7.5.3,1.3.2,1.7-.1.3-.2.4-.5.4-.8-.3-.7-1.1-.8-1.7-.7-.4.1-.9.4-.9.9Z"/>
      </g>
      <path class="st7" d="M48.8,102.4c.6.1.2,1.2.7,1.4,4,2.7,7.3,4.5,10.8,5.6,4.1,1.2,7.1.9,11.8.5,1,0,0-.1-.7.2-4.9,1.9-10.2,2.1-17.6,1.8-2.3-.1-5.5-.3-8.4-.7-3.2-.5-10.3-.9-10.9-4.5-1.2-6.5,10-4,14.3-4.3Z"/>
      <g class="st2">
        <path class="st9" d="M87.7,41.4c0-1.4-.3-2.7-.8-3.9-.6-.2-1.2-.4-1.8-.6-3.2-.7-6.4-1.1-9.7-1.3-.2,0-.3,0-.5,0-3.6,0-7.1.6-10.7.9-.5,1.5.2,2.2,0,3.8-.1.8-1.8,4.7-2.5,4.8-1.7.4-1.8-1.9-2.9-2.5-1.7-1-4.2-.2-4.5,1.1-.3,1.3,1.3,2.7,1.8,3.8.7,1.7.2,2.4.5,3.4.5,1.4,2.3,3.4,3.4,4.1,3.5,2.4,6,.5,10.2,1.1,1.8.2,2.5,1.8,3.6,2.3,1.2.6,2.8,1,4.5.5,1.4-.4,2.3-1.9,3.8-2.5,1.2-.5,4.3.3,6.1-.9,1.6-1.1,1.8-4,1.8-5.6,0-1.3-.5-2.7-.2-3.2.5-.9,2.1-.8,2.3-2.2.3-2.3-1.7-3.5-4.3-3.2ZM86.1,41.7c0,2-2.6.4-3.9.5-.9.1-2.2.6-2.9-.5,0-1.2,1.4-.8,2-.9,1.4-.2,3.4-.2,4.8.9ZM84.5,38.2c-.3.3.1.3,0,.9-.5.7-1.8.2-2.3-.2-.7-.1-2.1.7-3.2-.4.6-1.9,4.3-.9,5.6-.4ZM80.2,46.2c-.5-1.5-1.9-.9-2.7-.9-.6-2.5,5.2-.7,3.8,1.4-1,1.2-2,2.5-4.3,2.3-.4-1.8,3-1.2,3.2-2.9ZM74.3,38.3c-.1.2-.2.4-.2.7-1.2.4-2.3-.4-3.9-.2-1,.1-2,1.2-2.9.4.4-2.5,5.5-2.3,7-.9ZM68.9,41.4c1.6-.4,3.9-.7,5.2.2v.5c-.3,1.2-2.2.4-3.4.5-1.7.1-2.9,1.3-4.5.9-.4-1.3,1.5-1.9,2.7-2.1ZM86.5,49.5c-.4.9-.7.2-1.8.4-3.1,4-8.5,6-13.5,3.2-.5-.3-3-2.3-3-2.3-.9,0-1.5,2.8-2.7,1.8-.2-1.2.9-1.2,1.3-1.8.3-1.5,2.3-5.7,1.8-1.6,4.4,2.4,11.2,2.4,15.4-.4,0-1-.2-2.3.4-2.7,1.3.7.1,1.5,1.1,2.7.2.4,1.3-.1,1.1.7Z"/>
      </g>
      <path class="st3" d="M87.7,41.6c0-1.5-.4-2.9-.9-4.1-.6-.2-1.2-.4-1.8-.6-3.2-.7-6.4-1.1-9.7-1.3-.2,0-.3,0-.5,0-3.6,0-7.1.6-10.6.9-.6,1.7.1,2.4-.2,4-.1.8-1.8,4.7-2.5,4.8-1.7.4-1.8-1.9-2.9-2.5-1.7-1-4.2-.2-4.5,1.1-.3,1.3,1.3,2.7,1.8,3.8.7,1.7.2,2.4.5,3.4.5,1.4,2.3,3.4,3.4,4.1,3.5,2.4,6,.5,10.2,1.1,1.8.2,2.5,1.8,3.6,2.3,1.2.6,2.8,1,4.5.5,1.4-.4,2.3-1.9,3.8-2.5,1.2-.5,4.3.4,6.1-.9,1.6-1.1,1.8-4,1.8-5.6,0-1.3-.5-2.7-.2-3.2.5-.9,2.1-.8,2.3-2.2.3-2.3-1.7-3.5-4.3-3.2ZM86.1,41.9c0,2-2.6.4-3.9.5-.9.1-2.2.6-2.9-.5,0-1.2,1.4-.8,2-.9,1.4-.2,3.4-.2,4.8.9ZM84.5,38.4c-.3.3.1.3,0,.9-.5.7-1.8.2-2.3-.2-.7,0-2.1.7-3.2-.4.6-1.9,4.3-.9,5.6-.4ZM80.2,46.4c-.5-1.5-1.9-.9-2.7-.9-.6-2.5,5.2-.6,3.8,1.4-1,1.2-2,2.5-4.3,2.3-.4-1.8,3-1.1,3.2-2.9ZM74.3,38.5c-.1.2-.2.4-.2.7-1.2.4-2.3-.4-3.9-.2-1,.1-2,1.2-2.9.4.4-2.5,5.5-2.3,7-.9ZM68.9,41.6c1.6-.4,3.9-.7,5.2.2v.5c-.3,1.2-2.2.5-3.4.5-1.7.1-2.9,1.3-4.5.9-.4-1.3,1.5-1.9,2.7-2.2ZM86.5,49.7c-.4.9-.7.2-1.8.4-3.1,4-8.5,6-13.5,3.2-.5-.3-3-2.3-3-2.3-.9,0-1.5,2.8-2.7,1.8-.2-1.2.9-1.2,1.3-1.8.3-1.4,2.3-5.7,1.8-1.6,4.4,2.4,11.2,2.4,15.4-.4,0-.9-.2-2.3.4-2.7,1.3.7.1,1.5,1.1,2.7.2.4,1.3-.1,1.1.7Z"/>
      <path class="st6" d="M53.6,43.6s-.8-2.4,7.1-3.3l2.7-2.7s.1.3.3,2.6c0,0-1.5,4.9-2.7,5,0,0-1.8-1.9-2.8-2.7,0,0-2.9-1.1-4.7,1.2Z"/>
    </g>
  </g>
</svg>